<?xml version="1.0" encoding="utf-8" standalone="no"?>
<!DOCTYPE svg PUBLIC "-//W3C//DTD SVG 1.1//EN"
  "http://www.w3.org/Graphics/SVG/1.1/DTD/svg11.dtd">
<!-- Created with matplotlib (http://matplotlib.org/) -->
<svg height="345.6pt" version="1.1" viewBox="0 0 460.8 345.6" width="460.8pt" xmlns="http://www.w3.org/2000/svg" xmlns:xlink="http://www.w3.org/1999/xlink">
 <defs>
  <style type="text/css">
*{stroke-linecap:butt;stroke-linejoin:round;}
  </style>
 </defs>
 <g id="figure_1">
  <g id="patch_1">
   <path d="M 0 345.6 
L 460.8 345.6 
L 460.8 0 
L 0 0 
z
" style="fill:#ffffff;"/>
  </g>
  <g id="axes_1">
   <g id="patch_2">
    <path d="M 57.6 307.584 
L 414.72 307.584 
L 414.72 41.472 
L 57.6 41.472 
z
" style="fill:#ffffff;"/>
   </g>
   <g id="matplotlib.axis_1">
    <g id="xtick_1">
     <g id="line2d_1">
      <defs>
       <path d="M 0 0 
L 0 3.5 
" id="m5d9dfa9dae" style="stroke:#000000;stroke-width:0.8;"/>
      </defs>
      <g>
       <use style="stroke:#000000;stroke-width:0.8;" x="95.476364" xlink:href="#m5d9dfa9dae" y="307.584"/>
      </g>
     </g>
     <g id="text_1">
      <!-- 60000 -->
      <defs>
       <path d="M 33.015625 40.375 
Q 26.375 40.375 22.484375 35.828125 
Q 18.609375 31.296875 18.609375 23.390625 
Q 18.609375 15.53125 22.484375 10.953125 
Q 26.375 6.390625 33.015625 6.390625 
Q 39.65625 6.390625 43.53125 10.953125 
Q 47.40625 15.53125 47.40625 23.390625 
Q 47.40625 31.296875 43.53125 35.828125 
Q 39.65625 40.375 33.015625 40.375 
z
M 52.59375 71.296875 
L 52.59375 62.3125 
Q 48.875 64.0625 45.09375 64.984375 
Q 41.3125 65.921875 37.59375 65.921875 
Q 27.828125 65.921875 22.671875 59.328125 
Q 17.53125 52.734375 16.796875 39.40625 
Q 19.671875 43.65625 24.015625 45.921875 
Q 28.375 48.1875 33.59375 48.1875 
Q 44.578125 48.1875 50.953125 41.515625 
Q 57.328125 34.859375 57.328125 23.390625 
Q 57.328125 12.15625 50.6875 5.359375 
Q 44.046875 -1.421875 33.015625 -1.421875 
Q 20.359375 -1.421875 13.671875 8.265625 
Q 6.984375 17.96875 6.984375 36.375 
Q 6.984375 53.65625 15.1875 63.9375 
Q 23.390625 74.21875 37.203125 74.21875 
Q 40.921875 74.21875 44.703125 73.484375 
Q 48.484375 72.75 52.59375 71.296875 
z
" id="DejaVuSans-36"/>
       <path d="M 31.78125 66.40625 
Q 24.171875 66.40625 20.328125 58.90625 
Q 16.5 51.421875 16.5 36.375 
Q 16.5 21.390625 20.328125 13.890625 
Q 24.171875 6.390625 31.78125 6.390625 
Q 39.453125 6.390625 43.28125 13.890625 
Q 47.125 21.390625 47.125 36.375 
Q 47.125 51.421875 43.28125 58.90625 
Q 39.453125 66.40625 31.78125 66.40625 
z
M 31.78125 74.21875 
Q 44.046875 74.21875 50.515625 64.515625 
Q 56.984375 54.828125 56.984375 36.375 
Q 56.984375 17.96875 50.515625 8.265625 
Q 44.046875 -1.421875 31.78125 -1.421875 
Q 19.53125 -1.421875 13.0625 8.265625 
Q 6.59375 17.96875 6.59375 36.375 
Q 6.59375 54.828125 13.0625 64.515625 
Q 19.53125 74.21875 31.78125 74.21875 
z
" id="DejaVuSans-30"/>
      </defs>
      <g transform="translate(79.570114 322.182437)scale(0.1 -0.1)">
       <use xlink:href="#DejaVuSans-36"/>
       <use x="63.623047" xlink:href="#DejaVuSans-30"/>
       <use x="127.246094" xlink:href="#DejaVuSans-30"/>
       <use x="190.869141" xlink:href="#DejaVuSans-30"/>
       <use x="254.492188" xlink:href="#DejaVuSans-30"/>
      </g>
     </g>
    </g>
    <g id="xtick_2">
     <g id="line2d_2">
      <g>
       <use style="stroke:#000000;stroke-width:0.8;" x="138.763636" xlink:href="#m5d9dfa9dae" y="307.584"/>
      </g>
     </g>
     <g id="text_2">
      <!-- 80000 -->
      <defs>
       <path d="M 31.78125 34.625 
Q 24.75 34.625 20.71875 30.859375 
Q 16.703125 27.09375 16.703125 20.515625 
Q 16.703125 13.921875 20.71875 10.15625 
Q 24.75 6.390625 31.78125 6.390625 
Q 38.8125 6.390625 42.859375 10.171875 
Q 46.921875 13.96875 46.921875 20.515625 
Q 46.921875 27.09375 42.890625 30.859375 
Q 38.875 34.625 31.78125 34.625 
z
M 21.921875 38.8125 
Q 15.578125 40.375 12.03125 44.71875 
Q 8.5 49.078125 8.5 55.328125 
Q 8.5 64.0625 14.71875 69.140625 
Q 20.953125 74.21875 31.78125 74.21875 
Q 42.671875 74.21875 48.875 69.140625 
Q 55.078125 64.0625 55.078125 55.328125 
Q 55.078125 49.078125 51.53125 44.71875 
Q 48 40.375 41.703125 38.8125 
Q 48.828125 37.15625 52.796875 32.3125 
Q 56.78125 27.484375 56.78125 20.515625 
Q 56.78125 9.90625 50.3125 4.234375 
Q 43.84375 -1.421875 31.78125 -1.421875 
Q 19.734375 -1.421875 13.25 4.234375 
Q 6.78125 9.90625 6.78125 20.515625 
Q 6.78125 27.484375 10.78125 32.3125 
Q 14.796875 37.15625 21.921875 38.8125 
z
M 18.3125 54.390625 
Q 18.3125 48.734375 21.84375 45.5625 
Q 25.390625 42.390625 31.78125 42.390625 
Q 38.140625 42.390625 41.71875 45.5625 
Q 45.3125 48.734375 45.3125 54.390625 
Q 45.3125 60.0625 41.71875 63.234375 
Q 38.140625 66.40625 31.78125 66.40625 
Q 25.390625 66.40625 21.84375 63.234375 
Q 18.3125 60.0625 18.3125 54.390625 
z
" id="DejaVuSans-38"/>
      </defs>
      <g transform="translate(122.857386 322.182437)scale(0.1 -0.1)">
       <use xlink:href="#DejaVuSans-38"/>
       <use x="63.623047" xlink:href="#DejaVuSans-30"/>
       <use x="127.246094" xlink:href="#DejaVuSans-30"/>
       <use x="190.869141" xlink:href="#DejaVuSans-30"/>
       <use x="254.492188" xlink:href="#DejaVuSans-30"/>
      </g>
     </g>
    </g>
    <g id="xtick_3">
     <g id="line2d_3">
      <g>
       <use style="stroke:#000000;stroke-width:0.8;" x="182.050909" xlink:href="#m5d9dfa9dae" y="307.584"/>
      </g>
     </g>
     <g id="text_3">
      <!-- 100000 -->
      <defs>
       <path d="M 12.40625 8.296875 
L 28.515625 8.296875 
L 28.515625 63.921875 
L 10.984375 60.40625 
L 10.984375 69.390625 
L 28.421875 72.90625 
L 38.28125 72.90625 
L 38.28125 8.296875 
L 54.390625 8.296875 
L 54.390625 0 
L 12.40625 0 
z
" id="DejaVuSans-31"/>
      </defs>
      <g transform="translate(162.963409 322.182437)scale(0.1 -0.1)">
       <use xlink:href="#DejaVuSans-31"/>
       <use x="63.623047" xlink:href="#DejaVuSans-30"/>
       <use x="127.246094" xlink:href="#DejaVuSans-30"/>
       <use x="190.869141" xlink:href="#DejaVuSans-30"/>
       <use x="254.492188" xlink:href="#DejaVuSans-30"/>
       <use x="318.115234" xlink:href="#DejaVuSans-30"/>
      </g>
     </g>
    </g>
    <g id="xtick_4">
     <g id="line2d_4">
      <g>
       <use style="stroke:#000000;stroke-width:0.8;" x="225.338182" xlink:href="#m5d9dfa9dae" y="307.584"/>
      </g>
     </g>
     <g id="text_4">
      <!-- 120000 -->
      <defs>
       <path d="M 19.1875 8.296875 
L 53.609375 8.296875 
L 53.609375 0 
L 7.328125 0 
L 7.328125 8.296875 
Q 12.9375 14.109375 22.625 23.890625 
Q 32.328125 33.6875 34.8125 36.53125 
Q 39.546875 41.84375 41.421875 45.53125 
Q 43.3125 49.21875 43.3125 52.78125 
Q 43.3125 58.59375 39.234375 62.25 
Q 35.15625 65.921875 28.609375 65.921875 
Q 23.96875 65.921875 18.8125 64.3125 
Q 13.671875 62.703125 7.8125 59.421875 
L 7.8125 69.390625 
Q 13.765625 71.78125 18.9375 73 
Q 24.125 74.21875 28.421875 74.21875 
Q 39.75 74.21875 46.484375 68.546875 
Q 53.21875 62.890625 53.21875 53.421875 
Q 53.21875 48.921875 51.53125 44.890625 
Q 49.859375 40.875 45.40625 35.40625 
Q 44.1875 33.984375 37.640625 27.21875 
Q 31.109375 20.453125 19.1875 8.296875 
z
" id="DejaVuSans-32"/>
      </defs>
      <g transform="translate(206.250682 322.182437)scale(0.1 -0.1)">
       <use xlink:href="#DejaVuSans-31"/>
       <use x="63.623047" xlink:href="#DejaVuSans-32"/>
       <use x="127.246094" xlink:href="#DejaVuSans-30"/>
       <use x="190.869141" xlink:href="#DejaVuSans-30"/>
       <use x="254.492188" xlink:href="#DejaVuSans-30"/>
       <use x="318.115234" xlink:href="#DejaVuSans-30"/>
      </g>
     </g>
    </g>
    <g id="xtick_5">
     <g id="line2d_5">
      <g>
       <use style="stroke:#000000;stroke-width:0.8;" x="268.625455" xlink:href="#m5d9dfa9dae" y="307.584"/>
      </g>
     </g>
     <g id="text_5">
      <!-- 140000 -->
      <defs>
       <path d="M 37.796875 64.3125 
L 12.890625 25.390625 
L 37.796875 25.390625 
z
M 35.203125 72.90625 
L 47.609375 72.90625 
L 47.609375 25.390625 
L 58.015625 25.390625 
L 58.015625 17.1875 
L 47.609375 17.1875 
L 47.609375 0 
L 37.796875 0 
L 37.796875 17.1875 
L 4.890625 17.1875 
L 4.890625 26.703125 
z
" id="DejaVuSans-34"/>
      </defs>
      <g transform="translate(249.537955 322.182437)scale(0.1 -0.1)">
       <use xlink:href="#DejaVuSans-31"/>
       <use x="63.623047" xlink:href="#DejaVuSans-34"/>
       <use x="127.246094" xlink:href="#DejaVuSans-30"/>
       <use x="190.869141" xlink:href="#DejaVuSans-30"/>
       <use x="254.492188" xlink:href="#DejaVuSans-30"/>
       <use x="318.115234" xlink:href="#DejaVuSans-30"/>
      </g>
     </g>
    </g>
    <g id="xtick_6">
     <g id="line2d_6">
      <g>
       <use style="stroke:#000000;stroke-width:0.8;" x="311.912727" xlink:href="#m5d9dfa9dae" y="307.584"/>
      </g>
     </g>
     <g id="text_6">
      <!-- 160000 -->
      <g transform="translate(292.825227 322.182437)scale(0.1 -0.1)">
       <use xlink:href="#DejaVuSans-31"/>
       <use x="63.623047" xlink:href="#DejaVuSans-36"/>
       <use x="127.246094" xlink:href="#DejaVuSans-30"/>
       <use x="190.869141" xlink:href="#DejaVuSans-30"/>
       <use x="254.492188" xlink:href="#DejaVuSans-30"/>
       <use x="318.115234" xlink:href="#DejaVuSans-30"/>
      </g>
     </g>
    </g>
    <g id="xtick_7">
     <g id="line2d_7">
      <g>
       <use style="stroke:#000000;stroke-width:0.8;" x="355.2" xlink:href="#m5d9dfa9dae" y="307.584"/>
      </g>
     </g>
     <g id="text_7">
      <!-- 180000 -->
      <g transform="translate(336.1125 322.182437)scale(0.1 -0.1)">
       <use xlink:href="#DejaVuSans-31"/>
       <use x="63.623047" xlink:href="#DejaVuSans-38"/>
       <use x="127.246094" xlink:href="#DejaVuSans-30"/>
       <use x="190.869141" xlink:href="#DejaVuSans-30"/>
       <use x="254.492188" xlink:href="#DejaVuSans-30"/>
       <use x="318.115234" xlink:href="#DejaVuSans-30"/>
      </g>
     </g>
    </g>
    <g id="xtick_8">
     <g id="line2d_8">
      <g>
       <use style="stroke:#000000;stroke-width:0.8;" x="398.487273" xlink:href="#m5d9dfa9dae" y="307.584"/>
      </g>
     </g>
     <g id="text_8">
      <!-- 200000 -->
      <g transform="translate(379.399773 322.182437)scale(0.1 -0.1)">
       <use xlink:href="#DejaVuSans-32"/>
       <use x="63.623047" xlink:href="#DejaVuSans-30"/>
       <use x="127.246094" xlink:href="#DejaVuSans-30"/>
       <use x="190.869141" xlink:href="#DejaVuSans-30"/>
       <use x="254.492188" xlink:href="#DejaVuSans-30"/>
       <use x="318.115234" xlink:href="#DejaVuSans-30"/>
      </g>
     </g>
    </g>
    <g id="text_9">
     <!-- Wielkość tablicy -->
     <defs>
      <path d="M 3.328125 72.90625 
L 13.28125 72.90625 
L 28.609375 11.28125 
L 43.890625 72.90625 
L 54.984375 72.90625 
L 70.3125 11.28125 
L 85.59375 72.90625 
L 95.609375 72.90625 
L 77.296875 0 
L 64.890625 0 
L 49.515625 63.28125 
L 33.984375 0 
L 21.578125 0 
z
" id="DejaVuSans-57"/>
      <path d="M 9.421875 54.6875 
L 18.40625 54.6875 
L 18.40625 0 
L 9.421875 0 
z
M 9.421875 75.984375 
L 18.40625 75.984375 
L 18.40625 64.59375 
L 9.421875 64.59375 
z
" id="DejaVuSans-69"/>
      <path d="M 56.203125 29.59375 
L 56.203125 25.203125 
L 14.890625 25.203125 
Q 15.484375 15.921875 20.484375 11.0625 
Q 25.484375 6.203125 34.421875 6.203125 
Q 39.59375 6.203125 44.453125 7.46875 
Q 49.3125 8.734375 54.109375 11.28125 
L 54.109375 2.78125 
Q 49.265625 0.734375 44.1875 -0.34375 
Q 39.109375 -1.421875 33.890625 -1.421875 
Q 20.796875 -1.421875 13.15625 6.1875 
Q 5.515625 13.8125 5.515625 26.8125 
Q 5.515625 40.234375 12.765625 48.109375 
Q 20.015625 56 32.328125 56 
Q 43.359375 56 49.78125 48.890625 
Q 56.203125 41.796875 56.203125 29.59375 
z
M 47.21875 32.234375 
Q 47.125 39.59375 43.09375 43.984375 
Q 39.0625 48.390625 32.421875 48.390625 
Q 24.90625 48.390625 20.390625 44.140625 
Q 15.875 39.890625 15.1875 32.171875 
z
" id="DejaVuSans-65"/>
      <path d="M 9.421875 75.984375 
L 18.40625 75.984375 
L 18.40625 0 
L 9.421875 0 
z
" id="DejaVuSans-6c"/>
      <path d="M 9.078125 75.984375 
L 18.109375 75.984375 
L 18.109375 31.109375 
L 44.921875 54.6875 
L 56.390625 54.6875 
L 27.390625 29.109375 
L 57.625 0 
L 45.90625 0 
L 18.109375 26.703125 
L 18.109375 0 
L 9.078125 0 
z
" id="DejaVuSans-6b"/>
      <path d="M 30.609375 48.390625 
Q 23.390625 48.390625 19.1875 42.75 
Q 14.984375 37.109375 14.984375 27.296875 
Q 14.984375 17.484375 19.15625 11.84375 
Q 23.34375 6.203125 30.609375 6.203125 
Q 37.796875 6.203125 41.984375 11.859375 
Q 46.1875 17.53125 46.1875 27.296875 
Q 46.1875 37.015625 41.984375 42.703125 
Q 37.796875 48.390625 30.609375 48.390625 
z
M 30.609375 56 
Q 42.328125 56 49.015625 48.375 
Q 55.71875 40.765625 55.71875 27.296875 
Q 55.71875 13.875 49.015625 6.21875 
Q 42.328125 -1.421875 30.609375 -1.421875 
Q 18.84375 -1.421875 12.171875 6.21875 
Q 5.515625 13.875 5.515625 27.296875 
Q 5.515625 40.765625 12.171875 48.375 
Q 18.84375 56 30.609375 56 
z
" id="DejaVuSans-6f"/>
      <path d="M 35.015625 80.328125 
L 44.734375 80.328125 
L 28.8125 61.96875 
L 21.34375 61.96875 
z
M 44.28125 53.078125 
L 44.28125 44.578125 
Q 40.484375 46.53125 36.375 47.5 
Q 32.28125 48.484375 27.875 48.484375 
Q 21.1875 48.484375 17.84375 46.4375 
Q 14.5 44.390625 14.5 40.28125 
Q 14.5 37.15625 16.890625 35.375 
Q 19.28125 33.59375 26.515625 31.984375 
L 29.59375 31.296875 
Q 39.15625 29.25 43.1875 25.515625 
Q 47.21875 21.78125 47.21875 15.09375 
Q 47.21875 7.46875 41.1875 3.015625 
Q 35.15625 -1.421875 24.609375 -1.421875 
Q 20.21875 -1.421875 15.453125 -0.5625 
Q 10.6875 0.296875 5.421875 2 
L 5.421875 11.28125 
Q 10.40625 8.6875 15.234375 7.390625 
Q 20.0625 6.109375 24.8125 6.109375 
Q 31.15625 6.109375 34.5625 8.28125 
Q 37.984375 10.453125 37.984375 14.40625 
Q 37.984375 18.0625 35.515625 20.015625 
Q 33.0625 21.96875 24.703125 23.78125 
L 21.578125 24.515625 
Q 13.234375 26.265625 9.515625 29.90625 
Q 5.8125 33.546875 5.8125 39.890625 
Q 5.8125 47.609375 11.28125 51.796875 
Q 16.75 56 26.8125 56 
Q 31.78125 56 36.171875 55.265625 
Q 40.578125 54.546875 44.28125 53.078125 
z
" id="DejaVuSans-15b"/>
      <path d="M 48.78125 52.59375 
L 48.78125 44.1875 
Q 44.96875 46.296875 41.140625 47.34375 
Q 37.3125 48.390625 33.40625 48.390625 
Q 24.65625 48.390625 19.8125 42.84375 
Q 14.984375 37.3125 14.984375 27.296875 
Q 14.984375 17.28125 19.8125 11.734375 
Q 24.65625 6.203125 33.40625 6.203125 
Q 37.3125 6.203125 41.140625 7.25 
Q 44.96875 8.296875 48.78125 10.40625 
L 48.78125 2.09375 
Q 45.015625 0.34375 40.984375 -0.53125 
Q 36.96875 -1.421875 32.421875 -1.421875 
Q 20.0625 -1.421875 12.78125 6.34375 
Q 5.515625 14.109375 5.515625 27.296875 
Q 5.515625 40.671875 12.859375 48.328125 
Q 20.21875 56 33.015625 56 
Q 37.15625 56 41.109375 55.140625 
Q 45.0625 54.296875 48.78125 52.59375 
z
M 38.484375 79.984375 
L 48.1875 79.984375 
L 32.28125 61.625 
L 24.8125 61.625 
z
" id="DejaVuSans-107"/>
      <path id="DejaVuSans-20"/>
      <path d="M 18.3125 70.21875 
L 18.3125 54.6875 
L 36.8125 54.6875 
L 36.8125 47.703125 
L 18.3125 47.703125 
L 18.3125 18.015625 
Q 18.3125 11.328125 20.140625 9.421875 
Q 21.96875 7.515625 27.59375 7.515625 
L 36.8125 7.515625 
L 36.8125 0 
L 27.59375 0 
Q 17.1875 0 13.234375 3.875 
Q 9.28125 7.765625 9.28125 18.015625 
L 9.28125 47.703125 
L 2.6875 47.703125 
L 2.6875 54.6875 
L 9.28125 54.6875 
L 9.28125 70.21875 
z
" id="DejaVuSans-74"/>
      <path d="M 34.28125 27.484375 
Q 23.390625 27.484375 19.1875 25 
Q 14.984375 22.515625 14.984375 16.5 
Q 14.984375 11.71875 18.140625 8.90625 
Q 21.296875 6.109375 26.703125 6.109375 
Q 34.1875 6.109375 38.703125 11.40625 
Q 43.21875 16.703125 43.21875 25.484375 
L 43.21875 27.484375 
z
M 52.203125 31.203125 
L 52.203125 0 
L 43.21875 0 
L 43.21875 8.296875 
Q 40.140625 3.328125 35.546875 0.953125 
Q 30.953125 -1.421875 24.3125 -1.421875 
Q 15.921875 -1.421875 10.953125 3.296875 
Q 6 8.015625 6 15.921875 
Q 6 25.140625 12.171875 29.828125 
Q 18.359375 34.515625 30.609375 34.515625 
L 43.21875 34.515625 
L 43.21875 35.40625 
Q 43.21875 41.609375 39.140625 45 
Q 35.0625 48.390625 27.6875 48.390625 
Q 23 48.390625 18.546875 47.265625 
Q 14.109375 46.140625 10.015625 43.890625 
L 10.015625 52.203125 
Q 14.9375 54.109375 19.578125 55.046875 
Q 24.21875 56 28.609375 56 
Q 40.484375 56 46.34375 49.84375 
Q 52.203125 43.703125 52.203125 31.203125 
z
" id="DejaVuSans-61"/>
      <path d="M 48.6875 27.296875 
Q 48.6875 37.203125 44.609375 42.84375 
Q 40.53125 48.484375 33.40625 48.484375 
Q 26.265625 48.484375 22.1875 42.84375 
Q 18.109375 37.203125 18.109375 27.296875 
Q 18.109375 17.390625 22.1875 11.75 
Q 26.265625 6.109375 33.40625 6.109375 
Q 40.53125 6.109375 44.609375 11.75 
Q 48.6875 17.390625 48.6875 27.296875 
z
M 18.109375 46.390625 
Q 20.953125 51.265625 25.265625 53.625 
Q 29.59375 56 35.59375 56 
Q 45.5625 56 51.78125 48.09375 
Q 58.015625 40.1875 58.015625 27.296875 
Q 58.015625 14.40625 51.78125 6.484375 
Q 45.5625 -1.421875 35.59375 -1.421875 
Q 29.59375 -1.421875 25.265625 0.953125 
Q 20.953125 3.328125 18.109375 8.203125 
L 18.109375 0 
L 9.078125 0 
L 9.078125 75.984375 
L 18.109375 75.984375 
z
" id="DejaVuSans-62"/>
      <path d="M 48.78125 52.59375 
L 48.78125 44.1875 
Q 44.96875 46.296875 41.140625 47.34375 
Q 37.3125 48.390625 33.40625 48.390625 
Q 24.65625 48.390625 19.8125 42.84375 
Q 14.984375 37.3125 14.984375 27.296875 
Q 14.984375 17.28125 19.8125 11.734375 
Q 24.65625 6.203125 33.40625 6.203125 
Q 37.3125 6.203125 41.140625 7.25 
Q 44.96875 8.296875 48.78125 10.40625 
L 48.78125 2.09375 
Q 45.015625 0.34375 40.984375 -0.53125 
Q 36.96875 -1.421875 32.421875 -1.421875 
Q 20.0625 -1.421875 12.78125 6.34375 
Q 5.515625 14.109375 5.515625 27.296875 
Q 5.515625 40.671875 12.859375 48.328125 
Q 20.21875 56 33.015625 56 
Q 37.15625 56 41.109375 55.140625 
Q 45.0625 54.296875 48.78125 52.59375 
z
" id="DejaVuSans-63"/>
      <path d="M 32.171875 -5.078125 
Q 28.375 -14.84375 24.75 -17.8125 
Q 21.140625 -20.796875 15.09375 -20.796875 
L 7.90625 -20.796875 
L 7.90625 -13.28125 
L 13.1875 -13.28125 
Q 16.890625 -13.28125 18.9375 -11.515625 
Q 21 -9.765625 23.484375 -3.21875 
L 25.09375 0.875 
L 2.984375 54.6875 
L 12.5 54.6875 
L 29.59375 11.921875 
L 46.6875 54.6875 
L 56.203125 54.6875 
z
" id="DejaVuSans-79"/>
     </defs>
     <g transform="translate(195.782656 336.294938)scale(0.1 -0.1)">
      <use xlink:href="#DejaVuSans-57"/>
      <use x="98.845703" xlink:href="#DejaVuSans-69"/>
      <use x="126.628906" xlink:href="#DejaVuSans-65"/>
      <use x="188.152344" xlink:href="#DejaVuSans-6c"/>
      <use x="215.935547" xlink:href="#DejaVuSans-6b"/>
      <use x="273.798828" xlink:href="#DejaVuSans-6f"/>
      <use x="334.980469" xlink:href="#DejaVuSans-15b"/>
      <use x="387.080078" xlink:href="#DejaVuSans-107"/>
      <use x="442.060547" xlink:href="#DejaVuSans-20"/>
      <use x="473.847656" xlink:href="#DejaVuSans-74"/>
      <use x="513.056641" xlink:href="#DejaVuSans-61"/>
      <use x="574.335938" xlink:href="#DejaVuSans-62"/>
      <use x="637.8125" xlink:href="#DejaVuSans-6c"/>
      <use x="665.595703" xlink:href="#DejaVuSans-69"/>
      <use x="693.378906" xlink:href="#DejaVuSans-63"/>
      <use x="748.359375" xlink:href="#DejaVuSans-79"/>
     </g>
    </g>
   </g>
   <g id="matplotlib.axis_2">
    <g id="ytick_1">
     <g id="line2d_9">
      <defs>
       <path d="M 0 0 
L -3.5 0 
" id="md50b88bba6" style="stroke:#000000;stroke-width:0.8;"/>
      </defs>
      <g>
       <use style="stroke:#000000;stroke-width:0.8;" x="57.6" xlink:href="#md50b88bba6" y="279.144875"/>
      </g>
     </g>
     <g id="text_10">
      <!-- 10 -->
      <g transform="translate(37.875 282.944094)scale(0.1 -0.1)">
       <use xlink:href="#DejaVuSans-31"/>
       <use x="63.623047" xlink:href="#DejaVuSans-30"/>
      </g>
     </g>
    </g>
    <g id="ytick_2">
     <g id="line2d_10">
      <g>
       <use style="stroke:#000000;stroke-width:0.8;" x="57.6" xlink:href="#md50b88bba6" y="248.187884"/>
      </g>
     </g>
     <g id="text_11">
      <!-- 20 -->
      <g transform="translate(37.875 251.987103)scale(0.1 -0.1)">
       <use xlink:href="#DejaVuSans-32"/>
       <use x="63.623047" xlink:href="#DejaVuSans-30"/>
      </g>
     </g>
    </g>
    <g id="ytick_3">
     <g id="line2d_11">
      <g>
       <use style="stroke:#000000;stroke-width:0.8;" x="57.6" xlink:href="#md50b88bba6" y="217.230893"/>
      </g>
     </g>
     <g id="text_12">
      <!-- 30 -->
      <defs>
       <path d="M 40.578125 39.3125 
Q 47.65625 37.796875 51.625 33 
Q 55.609375 28.21875 55.609375 21.1875 
Q 55.609375 10.40625 48.1875 4.484375 
Q 40.765625 -1.421875 27.09375 -1.421875 
Q 22.515625 -1.421875 17.65625 -0.515625 
Q 12.796875 0.390625 7.625 2.203125 
L 7.625 11.71875 
Q 11.71875 9.328125 16.59375 8.109375 
Q 21.484375 6.890625 26.8125 6.890625 
Q 36.078125 6.890625 40.9375 10.546875 
Q 45.796875 14.203125 45.796875 21.1875 
Q 45.796875 27.640625 41.28125 31.265625 
Q 36.765625 34.90625 28.71875 34.90625 
L 20.21875 34.90625 
L 20.21875 43.015625 
L 29.109375 43.015625 
Q 36.375 43.015625 40.234375 45.921875 
Q 44.09375 48.828125 44.09375 54.296875 
Q 44.09375 59.90625 40.109375 62.90625 
Q 36.140625 65.921875 28.71875 65.921875 
Q 24.65625 65.921875 20.015625 65.03125 
Q 15.375 64.15625 9.8125 62.3125 
L 9.8125 71.09375 
Q 15.4375 72.65625 20.34375 73.4375 
Q 25.25 74.21875 29.59375 74.21875 
Q 40.828125 74.21875 47.359375 69.109375 
Q 53.90625 64.015625 53.90625 55.328125 
Q 53.90625 49.265625 50.4375 45.09375 
Q 46.96875 40.921875 40.578125 39.3125 
z
" id="DejaVuSans-33"/>
      </defs>
      <g transform="translate(37.875 221.030112)scale(0.1 -0.1)">
       <use xlink:href="#DejaVuSans-33"/>
       <use x="63.623047" xlink:href="#DejaVuSans-30"/>
      </g>
     </g>
    </g>
    <g id="ytick_4">
     <g id="line2d_12">
      <g>
       <use style="stroke:#000000;stroke-width:0.8;" x="57.6" xlink:href="#md50b88bba6" y="186.273902"/>
      </g>
     </g>
     <g id="text_13">
      <!-- 40 -->
      <g transform="translate(37.875 190.073121)scale(0.1 -0.1)">
       <use xlink:href="#DejaVuSans-34"/>
       <use x="63.623047" xlink:href="#DejaVuSans-30"/>
      </g>
     </g>
    </g>
    <g id="ytick_5">
     <g id="line2d_13">
      <g>
       <use style="stroke:#000000;stroke-width:0.8;" x="57.6" xlink:href="#md50b88bba6" y="155.316911"/>
      </g>
     </g>
     <g id="text_14">
      <!-- 50 -->
      <defs>
       <path d="M 10.796875 72.90625 
L 49.515625 72.90625 
L 49.515625 64.59375 
L 19.828125 64.59375 
L 19.828125 46.734375 
Q 21.96875 47.46875 24.109375 47.828125 
Q 26.265625 48.1875 28.421875 48.1875 
Q 40.625 48.1875 47.75 41.5 
Q 54.890625 34.8125 54.890625 23.390625 
Q 54.890625 11.625 47.5625 5.09375 
Q 40.234375 -1.421875 26.90625 -1.421875 
Q 22.3125 -1.421875 17.546875 -0.640625 
Q 12.796875 0.140625 7.71875 1.703125 
L 7.71875 11.625 
Q 12.109375 9.234375 16.796875 8.0625 
Q 21.484375 6.890625 26.703125 6.890625 
Q 35.15625 6.890625 40.078125 11.328125 
Q 45.015625 15.765625 45.015625 23.390625 
Q 45.015625 31 40.078125 35.4375 
Q 35.15625 39.890625 26.703125 39.890625 
Q 22.75 39.890625 18.8125 39.015625 
Q 14.890625 38.140625 10.796875 36.28125 
z
" id="DejaVuSans-35"/>
      </defs>
      <g transform="translate(37.875 159.11613)scale(0.1 -0.1)">
       <use xlink:href="#DejaVuSans-35"/>
       <use x="63.623047" xlink:href="#DejaVuSans-30"/>
      </g>
     </g>
    </g>
    <g id="ytick_6">
     <g id="line2d_14">
      <g>
       <use style="stroke:#000000;stroke-width:0.8;" x="57.6" xlink:href="#md50b88bba6" y="124.35992"/>
      </g>
     </g>
     <g id="text_15">
      <!-- 60 -->
      <g transform="translate(37.875 128.159139)scale(0.1 -0.1)">
       <use xlink:href="#DejaVuSans-36"/>
       <use x="63.623047" xlink:href="#DejaVuSans-30"/>
      </g>
     </g>
    </g>
    <g id="ytick_7">
     <g id="line2d_15">
      <g>
       <use style="stroke:#000000;stroke-width:0.8;" x="57.6" xlink:href="#md50b88bba6" y="93.402929"/>
      </g>
     </g>
     <g id="text_16">
      <!-- 70 -->
      <defs>
       <path d="M 8.203125 72.90625 
L 55.078125 72.90625 
L 55.078125 68.703125 
L 28.609375 0 
L 18.3125 0 
L 43.21875 64.59375 
L 8.203125 64.59375 
z
" id="DejaVuSans-37"/>
      </defs>
      <g transform="translate(37.875 97.202148)scale(0.1 -0.1)">
       <use xlink:href="#DejaVuSans-37"/>
       <use x="63.623047" xlink:href="#DejaVuSans-30"/>
      </g>
     </g>
    </g>
    <g id="ytick_8">
     <g id="line2d_16">
      <g>
       <use style="stroke:#000000;stroke-width:0.8;" x="57.6" xlink:href="#md50b88bba6" y="62.445938"/>
      </g>
     </g>
     <g id="text_17">
      <!-- 80 -->
      <g transform="translate(37.875 66.245157)scale(0.1 -0.1)">
       <use xlink:href="#DejaVuSans-38"/>
       <use x="63.623047" xlink:href="#DejaVuSans-30"/>
      </g>
     </g>
    </g>
    <g id="text_18">
     <!-- Czas sortowania [s] -->
     <defs>
      <path d="M 64.40625 67.28125 
L 64.40625 56.890625 
Q 59.421875 61.53125 53.78125 63.8125 
Q 48.140625 66.109375 41.796875 66.109375 
Q 29.296875 66.109375 22.65625 58.46875 
Q 16.015625 50.828125 16.015625 36.375 
Q 16.015625 21.96875 22.65625 14.328125 
Q 29.296875 6.6875 41.796875 6.6875 
Q 48.140625 6.6875 53.78125 8.984375 
Q 59.421875 11.28125 64.40625 15.921875 
L 64.40625 5.609375 
Q 59.234375 2.09375 53.4375 0.328125 
Q 47.65625 -1.421875 41.21875 -1.421875 
Q 24.65625 -1.421875 15.125 8.703125 
Q 5.609375 18.84375 5.609375 36.375 
Q 5.609375 53.953125 15.125 64.078125 
Q 24.65625 74.21875 41.21875 74.21875 
Q 47.75 74.21875 53.53125 72.484375 
Q 59.328125 70.75 64.40625 67.28125 
z
" id="DejaVuSans-43"/>
      <path d="M 5.515625 54.6875 
L 48.1875 54.6875 
L 48.1875 46.484375 
L 14.40625 7.171875 
L 48.1875 7.171875 
L 48.1875 0 
L 4.296875 0 
L 4.296875 8.203125 
L 38.09375 47.515625 
L 5.515625 47.515625 
z
" id="DejaVuSans-7a"/>
      <path d="M 44.28125 53.078125 
L 44.28125 44.578125 
Q 40.484375 46.53125 36.375 47.5 
Q 32.28125 48.484375 27.875 48.484375 
Q 21.1875 48.484375 17.84375 46.4375 
Q 14.5 44.390625 14.5 40.28125 
Q 14.5 37.15625 16.890625 35.375 
Q 19.28125 33.59375 26.515625 31.984375 
L 29.59375 31.296875 
Q 39.15625 29.25 43.1875 25.515625 
Q 47.21875 21.78125 47.21875 15.09375 
Q 47.21875 7.46875 41.1875 3.015625 
Q 35.15625 -1.421875 24.609375 -1.421875 
Q 20.21875 -1.421875 15.453125 -0.5625 
Q 10.6875 0.296875 5.421875 2 
L 5.421875 11.28125 
Q 10.40625 8.6875 15.234375 7.390625 
Q 20.0625 6.109375 24.8125 6.109375 
Q 31.15625 6.109375 34.5625 8.28125 
Q 37.984375 10.453125 37.984375 14.40625 
Q 37.984375 18.0625 35.515625 20.015625 
Q 33.0625 21.96875 24.703125 23.78125 
L 21.578125 24.515625 
Q 13.234375 26.265625 9.515625 29.90625 
Q 5.8125 33.546875 5.8125 39.890625 
Q 5.8125 47.609375 11.28125 51.796875 
Q 16.75 56 26.8125 56 
Q 31.78125 56 36.171875 55.265625 
Q 40.578125 54.546875 44.28125 53.078125 
z
" id="DejaVuSans-73"/>
      <path d="M 41.109375 46.296875 
Q 39.59375 47.171875 37.8125 47.578125 
Q 36.03125 48 33.890625 48 
Q 26.265625 48 22.1875 43.046875 
Q 18.109375 38.09375 18.109375 28.8125 
L 18.109375 0 
L 9.078125 0 
L 9.078125 54.6875 
L 18.109375 54.6875 
L 18.109375 46.1875 
Q 20.953125 51.171875 25.484375 53.578125 
Q 30.03125 56 36.53125 56 
Q 37.453125 56 38.578125 55.875 
Q 39.703125 55.765625 41.0625 55.515625 
z
" id="DejaVuSans-72"/>
      <path d="M 4.203125 54.6875 
L 13.1875 54.6875 
L 24.421875 12.015625 
L 35.59375 54.6875 
L 46.1875 54.6875 
L 57.421875 12.015625 
L 68.609375 54.6875 
L 77.59375 54.6875 
L 63.28125 0 
L 52.6875 0 
L 40.921875 44.828125 
L 29.109375 0 
L 18.5 0 
z
" id="DejaVuSans-77"/>
      <path d="M 54.890625 33.015625 
L 54.890625 0 
L 45.90625 0 
L 45.90625 32.71875 
Q 45.90625 40.484375 42.875 44.328125 
Q 39.84375 48.1875 33.796875 48.1875 
Q 26.515625 48.1875 22.3125 43.546875 
Q 18.109375 38.921875 18.109375 30.90625 
L 18.109375 0 
L 9.078125 0 
L 9.078125 54.6875 
L 18.109375 54.6875 
L 18.109375 46.1875 
Q 21.34375 51.125 25.703125 53.5625 
Q 30.078125 56 35.796875 56 
Q 45.21875 56 50.046875 50.171875 
Q 54.890625 44.34375 54.890625 33.015625 
z
" id="DejaVuSans-6e"/>
      <path d="M 8.59375 75.984375 
L 29.296875 75.984375 
L 29.296875 69 
L 17.578125 69 
L 17.578125 -6.203125 
L 29.296875 -6.203125 
L 29.296875 -13.1875 
L 8.59375 -13.1875 
z
" id="DejaVuSans-5b"/>
      <path d="M 30.421875 75.984375 
L 30.421875 -13.1875 
L 9.71875 -13.1875 
L 9.71875 -6.203125 
L 21.390625 -6.203125 
L 21.390625 69 
L 9.71875 69 
L 9.71875 75.984375 
z
" id="DejaVuSans-5d"/>
     </defs>
     <g transform="translate(31.795312 223.510812)rotate(-90)scale(0.1 -0.1)">
      <use xlink:href="#DejaVuSans-43"/>
      <use x="69.824219" xlink:href="#DejaVuSans-7a"/>
      <use x="122.314453" xlink:href="#DejaVuSans-61"/>
      <use x="183.59375" xlink:href="#DejaVuSans-73"/>
      <use x="235.693359" xlink:href="#DejaVuSans-20"/>
      <use x="267.480469" xlink:href="#DejaVuSans-73"/>
      <use x="319.580078" xlink:href="#DejaVuSans-6f"/>
      <use x="380.761719" xlink:href="#DejaVuSans-72"/>
      <use x="421.875" xlink:href="#DejaVuSans-74"/>
      <use x="461.083984" xlink:href="#DejaVuSans-6f"/>
      <use x="522.265625" xlink:href="#DejaVuSans-77"/>
      <use x="604.052734" xlink:href="#DejaVuSans-61"/>
      <use x="665.332031" xlink:href="#DejaVuSans-6e"/>
      <use x="728.710938" xlink:href="#DejaVuSans-69"/>
      <use x="756.494141" xlink:href="#DejaVuSans-61"/>
      <use x="817.773438" xlink:href="#DejaVuSans-20"/>
      <use x="849.560547" xlink:href="#DejaVuSans-5b"/>
      <use x="888.574219" xlink:href="#DejaVuSans-73"/>
      <use x="940.673828" xlink:href="#DejaVuSans-5d"/>
     </g>
    </g>
   </g>
   <g id="line2d_17">
    <path clip-path="url(#pdfb3d6956d)" d="M 73.832727 294.024252 
L 95.476364 287.474567 
L 117.12 279.468216 
L 138.763636 269.483133 
L 160.407273 258.927507 
L 182.050909 245.395607 
L 203.694545 234.129617 
L 225.338182 219.370962 
L 246.981818 200.986885 
L 268.625455 184.95085 
L 290.269091 167.722282 
L 311.912727 142.938366 
L 333.556364 125.420768 
L 355.2 104.582664 
L 376.843636 81.281984 
L 398.487273 53.568 
" style="fill:none;stroke:#1f77b4;stroke-linecap:square;stroke-width:1.5;"/>
    <defs>
     <path d="M 0 3 
C 0.795609 3 1.55874 2.683901 2.12132 2.12132 
C 2.683901 1.55874 3 0.795609 3 0 
C 3 -0.795609 2.683901 -1.55874 2.12132 -2.12132 
C 1.55874 -2.683901 0.795609 -3 0 -3 
C -0.795609 -3 -1.55874 -2.683901 -2.12132 -2.12132 
C -2.683901 -1.55874 -3 -0.795609 -3 0 
C -3 0.795609 -2.683901 1.55874 -2.12132 2.12132 
C -1.55874 2.683901 -0.795609 3 0 3 
z
" id="ma03f4d9af1" style="stroke:#1f77b4;"/>
    </defs>
    <g clip-path="url(#pdfb3d6956d)">
     <use style="fill:#1f77b4;stroke:#1f77b4;" x="73.832727" xlink:href="#ma03f4d9af1" y="294.024252"/>
     <use style="fill:#1f77b4;stroke:#1f77b4;" x="95.476364" xlink:href="#ma03f4d9af1" y="287.474567"/>
     <use style="fill:#1f77b4;stroke:#1f77b4;" x="117.12" xlink:href="#ma03f4d9af1" y="279.468216"/>
     <use style="fill:#1f77b4;stroke:#1f77b4;" x="138.763636" xlink:href="#ma03f4d9af1" y="269.483133"/>
     <use style="fill:#1f77b4;stroke:#1f77b4;" x="160.407273" xlink:href="#ma03f4d9af1" y="258.927507"/>
     <use style="fill:#1f77b4;stroke:#1f77b4;" x="182.050909" xlink:href="#ma03f4d9af1" y="245.395607"/>
     <use style="fill:#1f77b4;stroke:#1f77b4;" x="203.694545" xlink:href="#ma03f4d9af1" y="234.129617"/>
     <use style="fill:#1f77b4;stroke:#1f77b4;" x="225.338182" xlink:href="#ma03f4d9af1" y="219.370962"/>
     <use style="fill:#1f77b4;stroke:#1f77b4;" x="246.981818" xlink:href="#ma03f4d9af1" y="200.986885"/>
     <use style="fill:#1f77b4;stroke:#1f77b4;" x="268.625455" xlink:href="#ma03f4d9af1" y="184.95085"/>
     <use style="fill:#1f77b4;stroke:#1f77b4;" x="290.269091" xlink:href="#ma03f4d9af1" y="167.722282"/>
     <use style="fill:#1f77b4;stroke:#1f77b4;" x="311.912727" xlink:href="#ma03f4d9af1" y="142.938366"/>
     <use style="fill:#1f77b4;stroke:#1f77b4;" x="333.556364" xlink:href="#ma03f4d9af1" y="125.420768"/>
     <use style="fill:#1f77b4;stroke:#1f77b4;" x="355.2" xlink:href="#ma03f4d9af1" y="104.582664"/>
     <use style="fill:#1f77b4;stroke:#1f77b4;" x="376.843636" xlink:href="#ma03f4d9af1" y="81.281984"/>
     <use style="fill:#1f77b4;stroke:#1f77b4;" x="398.487273" xlink:href="#ma03f4d9af1" y="53.568"/>
    </g>
   </g>
   <g id="line2d_18">
    <path clip-path="url(#pdfb3d6956d)" d="M 73.832727 293.705819 
L 95.476364 287.396253 
L 117.12 279.220613 
L 138.763636 269.946996 
L 160.407273 259.375003 
L 182.050909 245.567104 
L 203.694545 233.914277 
L 225.338182 218.675203 
L 246.981818 203.118134 
L 268.625455 185.003184 
L 290.269091 167.269511 
L 311.912727 146.991569 
L 333.556364 125.939851 
L 355.2 104.508457 
L 376.843636 81.411694 
L 398.487273 56.045493 
" style="fill:none;stroke:#ff7f0e;stroke-linecap:square;stroke-width:1.5;"/>
    <defs>
     <path d="M 0 3 
C 0.795609 3 1.55874 2.683901 2.12132 2.12132 
C 2.683901 1.55874 3 0.795609 3 0 
C 3 -0.795609 2.683901 -1.55874 2.12132 -2.12132 
C 1.55874 -2.683901 0.795609 -3 0 -3 
C -0.795609 -3 -1.55874 -2.683901 -2.12132 -2.12132 
C -2.683901 -1.55874 -3 -0.795609 -3 0 
C -3 0.795609 -2.683901 1.55874 -2.12132 2.12132 
C -1.55874 2.683901 -0.795609 3 0 3 
z
" id="m616b7cfb96" style="stroke:#ff7f0e;"/>
    </defs>
    <g clip-path="url(#pdfb3d6956d)">
     <use style="fill:#ff7f0e;stroke:#ff7f0e;" x="73.832727" xlink:href="#m616b7cfb96" y="293.705819"/>
     <use style="fill:#ff7f0e;stroke:#ff7f0e;" x="95.476364" xlink:href="#m616b7cfb96" y="287.396253"/>
     <use style="fill:#ff7f0e;stroke:#ff7f0e;" x="117.12" xlink:href="#m616b7cfb96" y="279.220613"/>
     <use style="fill:#ff7f0e;stroke:#ff7f0e;" x="138.763636" xlink:href="#m616b7cfb96" y="269.946996"/>
     <use style="fill:#ff7f0e;stroke:#ff7f0e;" x="160.407273" xlink:href="#m616b7cfb96" y="259.375003"/>
     <use style="fill:#ff7f0e;stroke:#ff7f0e;" x="182.050909" xlink:href="#m616b7cfb96" y="245.567104"/>
     <use style="fill:#ff7f0e;stroke:#ff7f0e;" x="203.694545" xlink:href="#m616b7cfb96" y="233.914277"/>
     <use style="fill:#ff7f0e;stroke:#ff7f0e;" x="225.338182" xlink:href="#m616b7cfb96" y="218.675203"/>
     <use style="fill:#ff7f0e;stroke:#ff7f0e;" x="246.981818" xlink:href="#m616b7cfb96" y="203.118134"/>
     <use style="fill:#ff7f0e;stroke:#ff7f0e;" x="268.625455" xlink:href="#m616b7cfb96" y="185.003184"/>
     <use style="fill:#ff7f0e;stroke:#ff7f0e;" x="290.269091" xlink:href="#m616b7cfb96" y="167.269511"/>
     <use style="fill:#ff7f0e;stroke:#ff7f0e;" x="311.912727" xlink:href="#m616b7cfb96" y="146.991569"/>
     <use style="fill:#ff7f0e;stroke:#ff7f0e;" x="333.556364" xlink:href="#m616b7cfb96" y="125.939851"/>
     <use style="fill:#ff7f0e;stroke:#ff7f0e;" x="355.2" xlink:href="#m616b7cfb96" y="104.508457"/>
     <use style="fill:#ff7f0e;stroke:#ff7f0e;" x="376.843636" xlink:href="#m616b7cfb96" y="81.411694"/>
     <use style="fill:#ff7f0e;stroke:#ff7f0e;" x="398.487273" xlink:href="#m616b7cfb96" y="56.045493"/>
    </g>
   </g>
   <g id="line2d_19">
    <path clip-path="url(#pdfb3d6956d)" d="M 73.832727 295.488 
L 95.476364 289.081998 
L 117.12 281.573609 
L 138.763636 272.676673 
L 160.407273 262.240315 
L 182.050909 250.363782 
L 203.694545 239.653164 
L 225.338182 223.78094 
L 246.981818 211.682139 
L 268.625455 193.255908 
L 290.269091 178.438505 
L 311.912727 157.768082 
L 333.556364 139.526079 
L 355.2 121.822858 
L 376.843636 100.229232 
L 398.487273 78.923064 
" style="fill:none;stroke:#2ca02c;stroke-linecap:square;stroke-width:1.5;"/>
    <defs>
     <path d="M 0 3 
C 0.795609 3 1.55874 2.683901 2.12132 2.12132 
C 2.683901 1.55874 3 0.795609 3 0 
C 3 -0.795609 2.683901 -1.55874 2.12132 -2.12132 
C 1.55874 -2.683901 0.795609 -3 0 -3 
C -0.795609 -3 -1.55874 -2.683901 -2.12132 -2.12132 
C -2.683901 -1.55874 -3 -0.795609 -3 0 
C -3 0.795609 -2.683901 1.55874 -2.12132 2.12132 
C -1.55874 2.683901 -0.795609 3 0 3 
z
" id="mba053c6c28" style="stroke:#2ca02c;"/>
    </defs>
    <g clip-path="url(#pdfb3d6956d)">
     <use style="fill:#2ca02c;stroke:#2ca02c;" x="73.832727" xlink:href="#mba053c6c28" y="295.488"/>
     <use style="fill:#2ca02c;stroke:#2ca02c;" x="95.476364" xlink:href="#mba053c6c28" y="289.081998"/>
     <use style="fill:#2ca02c;stroke:#2ca02c;" x="117.12" xlink:href="#mba053c6c28" y="281.573609"/>
     <use style="fill:#2ca02c;stroke:#2ca02c;" x="138.763636" xlink:href="#mba053c6c28" y="272.676673"/>
     <use style="fill:#2ca02c;stroke:#2ca02c;" x="160.407273" xlink:href="#mba053c6c28" y="262.240315"/>
     <use style="fill:#2ca02c;stroke:#2ca02c;" x="182.050909" xlink:href="#mba053c6c28" y="250.363782"/>
     <use style="fill:#2ca02c;stroke:#2ca02c;" x="203.694545" xlink:href="#mba053c6c28" y="239.653164"/>
     <use style="fill:#2ca02c;stroke:#2ca02c;" x="225.338182" xlink:href="#mba053c6c28" y="223.78094"/>
     <use style="fill:#2ca02c;stroke:#2ca02c;" x="246.981818" xlink:href="#mba053c6c28" y="211.682139"/>
     <use style="fill:#2ca02c;stroke:#2ca02c;" x="268.625455" xlink:href="#mba053c6c28" y="193.255908"/>
     <use style="fill:#2ca02c;stroke:#2ca02c;" x="290.269091" xlink:href="#mba053c6c28" y="178.438505"/>
     <use style="fill:#2ca02c;stroke:#2ca02c;" x="311.912727" xlink:href="#mba053c6c28" y="157.768082"/>
     <use style="fill:#2ca02c;stroke:#2ca02c;" x="333.556364" xlink:href="#mba053c6c28" y="139.526079"/>
     <use style="fill:#2ca02c;stroke:#2ca02c;" x="355.2" xlink:href="#mba053c6c28" y="121.822858"/>
     <use style="fill:#2ca02c;stroke:#2ca02c;" x="376.843636" xlink:href="#mba053c6c28" y="100.229232"/>
     <use style="fill:#2ca02c;stroke:#2ca02c;" x="398.487273" xlink:href="#mba053c6c28" y="78.923064"/>
    </g>
   </g>
   <g id="line2d_20">
    <path clip-path="url(#pdfb3d6956d)" d="M 73.832727 295.439059 
L 95.476364 288.752252 
L 117.12 281.533522 
L 138.763636 272.807591 
L 160.407273 260.864283 
L 182.050909 251.441866 
L 203.694545 238.376584 
L 225.338182 224.036408 
L 246.981818 209.802739 
L 268.625455 192.668154 
L 290.269091 178.696416 
L 311.912727 157.598693 
L 333.556364 139.058395 
L 355.2 118.044279 
L 376.843636 94.609205 
L 398.487273 70.837409 
" style="fill:none;stroke:#d62728;stroke-linecap:square;stroke-width:1.5;"/>
    <defs>
     <path d="M 0 3 
C 0.795609 3 1.55874 2.683901 2.12132 2.12132 
C 2.683901 1.55874 3 0.795609 3 0 
C 3 -0.795609 2.683901 -1.55874 2.12132 -2.12132 
C 1.55874 -2.683901 0.795609 -3 0 -3 
C -0.795609 -3 -1.55874 -2.683901 -2.12132 -2.12132 
C -2.683901 -1.55874 -3 -0.795609 -3 0 
C -3 0.795609 -2.683901 1.55874 -2.12132 2.12132 
C -1.55874 2.683901 -0.795609 3 0 3 
z
" id="m7a62bceb94" style="stroke:#d62728;"/>
    </defs>
    <g clip-path="url(#pdfb3d6956d)">
     <use style="fill:#d62728;stroke:#d62728;" x="73.832727" xlink:href="#m7a62bceb94" y="295.439059"/>
     <use style="fill:#d62728;stroke:#d62728;" x="95.476364" xlink:href="#m7a62bceb94" y="288.752252"/>
     <use style="fill:#d62728;stroke:#d62728;" x="117.12" xlink:href="#m7a62bceb94" y="281.533522"/>
     <use style="fill:#d62728;stroke:#d62728;" x="138.763636" xlink:href="#m7a62bceb94" y="272.807591"/>
     <use style="fill:#d62728;stroke:#d62728;" x="160.407273" xlink:href="#m7a62bceb94" y="260.864283"/>
     <use style="fill:#d62728;stroke:#d62728;" x="182.050909" xlink:href="#m7a62bceb94" y="251.441866"/>
     <use style="fill:#d62728;stroke:#d62728;" x="203.694545" xlink:href="#m7a62bceb94" y="238.376584"/>
     <use style="fill:#d62728;stroke:#d62728;" x="225.338182" xlink:href="#m7a62bceb94" y="224.036408"/>
     <use style="fill:#d62728;stroke:#d62728;" x="246.981818" xlink:href="#m7a62bceb94" y="209.802739"/>
     <use style="fill:#d62728;stroke:#d62728;" x="268.625455" xlink:href="#m7a62bceb94" y="192.668154"/>
     <use style="fill:#d62728;stroke:#d62728;" x="290.269091" xlink:href="#m7a62bceb94" y="178.696416"/>
     <use style="fill:#d62728;stroke:#d62728;" x="311.912727" xlink:href="#m7a62bceb94" y="157.598693"/>
     <use style="fill:#d62728;stroke:#d62728;" x="333.556364" xlink:href="#m7a62bceb94" y="139.058395"/>
     <use style="fill:#d62728;stroke:#d62728;" x="355.2" xlink:href="#m7a62bceb94" y="118.044279"/>
     <use style="fill:#d62728;stroke:#d62728;" x="376.843636" xlink:href="#m7a62bceb94" y="94.609205"/>
     <use style="fill:#d62728;stroke:#d62728;" x="398.487273" xlink:href="#m7a62bceb94" y="70.837409"/>
    </g>
   </g>
   <g id="line2d_21">
    <path clip-path="url(#pdfb3d6956d)" d="M 73.832727 295.203322 
L 95.476364 288.057792 
L 117.12 281.019058 
L 138.763636 273.009513 
L 160.407273 263.332756 
L 182.050909 251.704215 
L 203.694545 238.744235 
L 225.338182 226.263245 
L 246.981818 211.022287 
L 268.625455 196.893259 
L 290.269091 178.555601 
L 311.912727 158.47693 
L 333.556364 142.507579 
L 355.2 121.373219 
L 376.843636 99.662845 
L 398.487273 75.403474 
" style="fill:none;stroke:#9467bd;stroke-linecap:square;stroke-width:1.5;"/>
    <defs>
     <path d="M 0 3 
C 0.795609 3 1.55874 2.683901 2.12132 2.12132 
C 2.683901 1.55874 3 0.795609 3 0 
C 3 -0.795609 2.683901 -1.55874 2.12132 -2.12132 
C 1.55874 -2.683901 0.795609 -3 0 -3 
C -0.795609 -3 -1.55874 -2.683901 -2.12132 -2.12132 
C -2.683901 -1.55874 -3 -0.795609 -3 0 
C -3 0.795609 -2.683901 1.55874 -2.12132 2.12132 
C -1.55874 2.683901 -0.795609 3 0 3 
z
" id="mcce3857cae" style="stroke:#9467bd;"/>
    </defs>
    <g clip-path="url(#pdfb3d6956d)">
     <use style="fill:#9467bd;stroke:#9467bd;" x="73.832727" xlink:href="#mcce3857cae" y="295.203322"/>
     <use style="fill:#9467bd;stroke:#9467bd;" x="95.476364" xlink:href="#mcce3857cae" y="288.057792"/>
     <use style="fill:#9467bd;stroke:#9467bd;" x="117.12" xlink:href="#mcce3857cae" y="281.019058"/>
     <use style="fill:#9467bd;stroke:#9467bd;" x="138.763636" xlink:href="#mcce3857cae" y="273.009513"/>
     <use style="fill:#9467bd;stroke:#9467bd;" x="160.407273" xlink:href="#mcce3857cae" y="263.332756"/>
     <use style="fill:#9467bd;stroke:#9467bd;" x="182.050909" xlink:href="#mcce3857cae" y="251.704215"/>
     <use style="fill:#9467bd;stroke:#9467bd;" x="203.694545" xlink:href="#mcce3857cae" y="238.744235"/>
     <use style="fill:#9467bd;stroke:#9467bd;" x="225.338182" xlink:href="#mcce3857cae" y="226.263245"/>
     <use style="fill:#9467bd;stroke:#9467bd;" x="246.981818" xlink:href="#mcce3857cae" y="211.022287"/>
     <use style="fill:#9467bd;stroke:#9467bd;" x="268.625455" xlink:href="#mcce3857cae" y="196.893259"/>
     <use style="fill:#9467bd;stroke:#9467bd;" x="290.269091" xlink:href="#mcce3857cae" y="178.555601"/>
     <use style="fill:#9467bd;stroke:#9467bd;" x="311.912727" xlink:href="#mcce3857cae" y="158.47693"/>
     <use style="fill:#9467bd;stroke:#9467bd;" x="333.556364" xlink:href="#mcce3857cae" y="142.507579"/>
     <use style="fill:#9467bd;stroke:#9467bd;" x="355.2" xlink:href="#mcce3857cae" y="121.373219"/>
     <use style="fill:#9467bd;stroke:#9467bd;" x="376.843636" xlink:href="#mcce3857cae" y="99.662845"/>
     <use style="fill:#9467bd;stroke:#9467bd;" x="398.487273" xlink:href="#mcce3857cae" y="75.403474"/>
    </g>
   </g>
   <g id="patch_3">
    <path d="M 57.6 307.584 
L 57.6 41.472 
" style="fill:none;stroke:#000000;stroke-linecap:square;stroke-linejoin:miter;stroke-width:0.8;"/>
   </g>
   <g id="patch_4">
    <path d="M 414.72 307.584 
L 414.72 41.472 
" style="fill:none;stroke:#000000;stroke-linecap:square;stroke-linejoin:miter;stroke-width:0.8;"/>
   </g>
   <g id="patch_5">
    <path d="M 57.6 307.584 
L 414.72 307.584 
" style="fill:none;stroke:#000000;stroke-linecap:square;stroke-linejoin:miter;stroke-width:0.8;"/>
   </g>
   <g id="patch_6">
    <path d="M 57.6 41.472 
L 414.72 41.472 
" style="fill:none;stroke:#000000;stroke-linecap:square;stroke-linejoin:miter;stroke-width:0.8;"/>
   </g>
   <g id="text_19">
    <!-- Selection Sort -->
    <defs>
     <path d="M 53.515625 70.515625 
L 53.515625 60.890625 
Q 47.90625 63.578125 42.921875 64.890625 
Q 37.9375 66.21875 33.296875 66.21875 
Q 25.25 66.21875 20.875 63.09375 
Q 16.5 59.96875 16.5 54.203125 
Q 16.5 49.359375 19.40625 46.890625 
Q 22.3125 44.4375 30.421875 42.921875 
L 36.375 41.703125 
Q 47.40625 39.59375 52.65625 34.296875 
Q 57.90625 29 57.90625 20.125 
Q 57.90625 9.515625 50.796875 4.046875 
Q 43.703125 -1.421875 29.984375 -1.421875 
Q 24.8125 -1.421875 18.96875 -0.25 
Q 13.140625 0.921875 6.890625 3.21875 
L 6.890625 13.375 
Q 12.890625 10.015625 18.65625 8.296875 
Q 24.421875 6.59375 29.984375 6.59375 
Q 38.421875 6.59375 43.015625 9.90625 
Q 47.609375 13.234375 47.609375 19.390625 
Q 47.609375 24.75 44.3125 27.78125 
Q 41.015625 30.8125 33.5 32.328125 
L 27.484375 33.5 
Q 16.453125 35.6875 11.515625 40.375 
Q 6.59375 45.0625 6.59375 53.421875 
Q 6.59375 63.09375 13.40625 68.65625 
Q 20.21875 74.21875 32.171875 74.21875 
Q 37.3125 74.21875 42.625 73.28125 
Q 47.953125 72.359375 53.515625 70.515625 
z
" id="DejaVuSans-53"/>
    </defs>
    <g transform="translate(194.3025 35.472)scale(0.12 -0.12)">
     <use xlink:href="#DejaVuSans-53"/>
     <use x="63.476562" xlink:href="#DejaVuSans-65"/>
     <use x="125" xlink:href="#DejaVuSans-6c"/>
     <use x="152.783203" xlink:href="#DejaVuSans-65"/>
     <use x="214.306641" xlink:href="#DejaVuSans-63"/>
     <use x="269.287109" xlink:href="#DejaVuSans-74"/>
     <use x="308.496094" xlink:href="#DejaVuSans-69"/>
     <use x="336.279297" xlink:href="#DejaVuSans-6f"/>
     <use x="397.460938" xlink:href="#DejaVuSans-6e"/>
     <use x="460.839844" xlink:href="#DejaVuSans-20"/>
     <use x="492.626953" xlink:href="#DejaVuSans-53"/>
     <use x="556.103516" xlink:href="#DejaVuSans-6f"/>
     <use x="617.285156" xlink:href="#DejaVuSans-72"/>
     <use x="658.398438" xlink:href="#DejaVuSans-74"/>
    </g>
   </g>
   <g id="legend_1">
    <g id="patch_7">
     <path d="M 64.6 122.862625 
L 154.1125 122.862625 
Q 156.1125 122.862625 156.1125 120.862625 
L 156.1125 48.472 
Q 156.1125 46.472 154.1125 46.472 
L 64.6 46.472 
Q 62.6 46.472 62.6 48.472 
L 62.6 120.862625 
Q 62.6 122.862625 64.6 122.862625 
z
" style="fill:#ffffff;opacity:0.8;stroke:#cccccc;stroke-linejoin:miter;"/>
    </g>
    <g id="line2d_22">
     <path d="M 66.6 54.570438 
L 86.6 54.570438 
" style="fill:none;stroke:#1f77b4;stroke-linecap:square;stroke-width:1.5;"/>
    </g>
    <g id="line2d_23">
     <g>
      <use style="fill:#1f77b4;stroke:#1f77b4;" x="76.6" xlink:href="#ma03f4d9af1" y="54.570438"/>
     </g>
    </g>
    <g id="text_20">
     <!-- ascending -->
     <defs>
      <path d="M 45.40625 46.390625 
L 45.40625 75.984375 
L 54.390625 75.984375 
L 54.390625 0 
L 45.40625 0 
L 45.40625 8.203125 
Q 42.578125 3.328125 38.25 0.953125 
Q 33.9375 -1.421875 27.875 -1.421875 
Q 17.96875 -1.421875 11.734375 6.484375 
Q 5.515625 14.40625 5.515625 27.296875 
Q 5.515625 40.1875 11.734375 48.09375 
Q 17.96875 56 27.875 56 
Q 33.9375 56 38.25 53.625 
Q 42.578125 51.265625 45.40625 46.390625 
z
M 14.796875 27.296875 
Q 14.796875 17.390625 18.875 11.75 
Q 22.953125 6.109375 30.078125 6.109375 
Q 37.203125 6.109375 41.296875 11.75 
Q 45.40625 17.390625 45.40625 27.296875 
Q 45.40625 37.203125 41.296875 42.84375 
Q 37.203125 48.484375 30.078125 48.484375 
Q 22.953125 48.484375 18.875 42.84375 
Q 14.796875 37.203125 14.796875 27.296875 
z
" id="DejaVuSans-64"/>
      <path d="M 45.40625 27.984375 
Q 45.40625 37.75 41.375 43.109375 
Q 37.359375 48.484375 30.078125 48.484375 
Q 22.859375 48.484375 18.828125 43.109375 
Q 14.796875 37.75 14.796875 27.984375 
Q 14.796875 18.265625 18.828125 12.890625 
Q 22.859375 7.515625 30.078125 7.515625 
Q 37.359375 7.515625 41.375 12.890625 
Q 45.40625 18.265625 45.40625 27.984375 
z
M 54.390625 6.78125 
Q 54.390625 -7.171875 48.1875 -13.984375 
Q 42 -20.796875 29.203125 -20.796875 
Q 24.46875 -20.796875 20.265625 -20.09375 
Q 16.0625 -19.390625 12.109375 -17.921875 
L 12.109375 -9.1875 
Q 16.0625 -11.328125 19.921875 -12.34375 
Q 23.78125 -13.375 27.78125 -13.375 
Q 36.625 -13.375 41.015625 -8.765625 
Q 45.40625 -4.15625 45.40625 5.171875 
L 45.40625 9.625 
Q 42.625 4.78125 38.28125 2.390625 
Q 33.9375 0 27.875 0 
Q 17.828125 0 11.671875 7.65625 
Q 5.515625 15.328125 5.515625 27.984375 
Q 5.515625 40.671875 11.671875 48.328125 
Q 17.828125 56 27.875 56 
Q 33.9375 56 38.28125 53.609375 
Q 42.625 51.21875 45.40625 46.390625 
L 45.40625 54.6875 
L 54.390625 54.6875 
z
" id="DejaVuSans-67"/>
     </defs>
     <g transform="translate(94.6 58.070438)scale(0.1 -0.1)">
      <use xlink:href="#DejaVuSans-61"/>
      <use x="61.279297" xlink:href="#DejaVuSans-73"/>
      <use x="113.378906" xlink:href="#DejaVuSans-63"/>
      <use x="168.359375" xlink:href="#DejaVuSans-65"/>
      <use x="229.882812" xlink:href="#DejaVuSans-6e"/>
      <use x="293.261719" xlink:href="#DejaVuSans-64"/>
      <use x="356.738281" xlink:href="#DejaVuSans-69"/>
      <use x="384.521484" xlink:href="#DejaVuSans-6e"/>
      <use x="447.900391" xlink:href="#DejaVuSans-67"/>
     </g>
    </g>
    <g id="line2d_24">
     <path d="M 66.6 69.248563 
L 86.6 69.248563 
" style="fill:none;stroke:#ff7f0e;stroke-linecap:square;stroke-width:1.5;"/>
    </g>
    <g id="line2d_25">
     <g>
      <use style="fill:#ff7f0e;stroke:#ff7f0e;" x="76.6" xlink:href="#m616b7cfb96" y="69.248563"/>
     </g>
    </g>
    <g id="text_21">
     <!-- descending -->
     <g transform="translate(94.6 72.748563)scale(0.1 -0.1)">
      <use xlink:href="#DejaVuSans-64"/>
      <use x="63.476562" xlink:href="#DejaVuSans-65"/>
      <use x="125" xlink:href="#DejaVuSans-73"/>
      <use x="177.099609" xlink:href="#DejaVuSans-63"/>
      <use x="232.080078" xlink:href="#DejaVuSans-65"/>
      <use x="293.603516" xlink:href="#DejaVuSans-6e"/>
      <use x="356.982422" xlink:href="#DejaVuSans-64"/>
      <use x="420.458984" xlink:href="#DejaVuSans-69"/>
      <use x="448.242188" xlink:href="#DejaVuSans-6e"/>
      <use x="511.621094" xlink:href="#DejaVuSans-67"/>
     </g>
    </g>
    <g id="line2d_26">
     <path d="M 66.6 83.926688 
L 86.6 83.926688 
" style="fill:none;stroke:#2ca02c;stroke-linecap:square;stroke-width:1.5;"/>
    </g>
    <g id="line2d_27">
     <g>
      <use style="fill:#2ca02c;stroke:#2ca02c;" x="76.6" xlink:href="#mba053c6c28" y="83.926688"/>
     </g>
    </g>
    <g id="text_22">
     <!-- random -->
     <defs>
      <path d="M 52 44.1875 
Q 55.375 50.25 60.0625 53.125 
Q 64.75 56 71.09375 56 
Q 79.640625 56 84.28125 50.015625 
Q 88.921875 44.046875 88.921875 33.015625 
L 88.921875 0 
L 79.890625 0 
L 79.890625 32.71875 
Q 79.890625 40.578125 77.09375 44.375 
Q 74.3125 48.1875 68.609375 48.1875 
Q 61.625 48.1875 57.5625 43.546875 
Q 53.515625 38.921875 53.515625 30.90625 
L 53.515625 0 
L 44.484375 0 
L 44.484375 32.71875 
Q 44.484375 40.625 41.703125 44.40625 
Q 38.921875 48.1875 33.109375 48.1875 
Q 26.21875 48.1875 22.15625 43.53125 
Q 18.109375 38.875 18.109375 30.90625 
L 18.109375 0 
L 9.078125 0 
L 9.078125 54.6875 
L 18.109375 54.6875 
L 18.109375 46.1875 
Q 21.1875 51.21875 25.484375 53.609375 
Q 29.78125 56 35.6875 56 
Q 41.65625 56 45.828125 52.96875 
Q 50 49.953125 52 44.1875 
z
" id="DejaVuSans-6d"/>
     </defs>
     <g transform="translate(94.6 87.426688)scale(0.1 -0.1)">
      <use xlink:href="#DejaVuSans-72"/>
      <use x="41.113281" xlink:href="#DejaVuSans-61"/>
      <use x="102.392578" xlink:href="#DejaVuSans-6e"/>
      <use x="165.771484" xlink:href="#DejaVuSans-64"/>
      <use x="229.248047" xlink:href="#DejaVuSans-6f"/>
      <use x="290.429688" xlink:href="#DejaVuSans-6d"/>
     </g>
    </g>
    <g id="line2d_28">
     <path d="M 66.6 98.604813 
L 86.6 98.604813 
" style="fill:none;stroke:#d62728;stroke-linecap:square;stroke-width:1.5;"/>
    </g>
    <g id="line2d_29">
     <g>
      <use style="fill:#d62728;stroke:#d62728;" x="76.6" xlink:href="#m7a62bceb94" y="98.604813"/>
     </g>
    </g>
    <g id="text_23">
     <!-- v-shaped -->
     <defs>
      <path d="M 2.984375 54.6875 
L 12.5 54.6875 
L 29.59375 8.796875 
L 46.6875 54.6875 
L 56.203125 54.6875 
L 35.6875 0 
L 23.484375 0 
z
" id="DejaVuSans-76"/>
      <path d="M 4.890625 31.390625 
L 31.203125 31.390625 
L 31.203125 23.390625 
L 4.890625 23.390625 
z
" id="DejaVuSans-2d"/>
      <path d="M 54.890625 33.015625 
L 54.890625 0 
L 45.90625 0 
L 45.90625 32.71875 
Q 45.90625 40.484375 42.875 44.328125 
Q 39.84375 48.1875 33.796875 48.1875 
Q 26.515625 48.1875 22.3125 43.546875 
Q 18.109375 38.921875 18.109375 30.90625 
L 18.109375 0 
L 9.078125 0 
L 9.078125 75.984375 
L 18.109375 75.984375 
L 18.109375 46.1875 
Q 21.34375 51.125 25.703125 53.5625 
Q 30.078125 56 35.796875 56 
Q 45.21875 56 50.046875 50.171875 
Q 54.890625 44.34375 54.890625 33.015625 
z
" id="DejaVuSans-68"/>
      <path d="M 18.109375 8.203125 
L 18.109375 -20.796875 
L 9.078125 -20.796875 
L 9.078125 54.6875 
L 18.109375 54.6875 
L 18.109375 46.390625 
Q 20.953125 51.265625 25.265625 53.625 
Q 29.59375 56 35.59375 56 
Q 45.5625 56 51.78125 48.09375 
Q 58.015625 40.1875 58.015625 27.296875 
Q 58.015625 14.40625 51.78125 6.484375 
Q 45.5625 -1.421875 35.59375 -1.421875 
Q 29.59375 -1.421875 25.265625 0.953125 
Q 20.953125 3.328125 18.109375 8.203125 
z
M 48.6875 27.296875 
Q 48.6875 37.203125 44.609375 42.84375 
Q 40.53125 48.484375 33.40625 48.484375 
Q 26.265625 48.484375 22.1875 42.84375 
Q 18.109375 37.203125 18.109375 27.296875 
Q 18.109375 17.390625 22.1875 11.75 
Q 26.265625 6.109375 33.40625 6.109375 
Q 40.53125 6.109375 44.609375 11.75 
Q 48.6875 17.390625 48.6875 27.296875 
z
" id="DejaVuSans-70"/>
     </defs>
     <g transform="translate(94.6 102.104813)scale(0.1 -0.1)">
      <use xlink:href="#DejaVuSans-76"/>
      <use x="59.148438" xlink:href="#DejaVuSans-2d"/>
      <use x="95.232422" xlink:href="#DejaVuSans-73"/>
      <use x="147.332031" xlink:href="#DejaVuSans-68"/>
      <use x="210.710938" xlink:href="#DejaVuSans-61"/>
      <use x="271.990234" xlink:href="#DejaVuSans-70"/>
      <use x="335.466797" xlink:href="#DejaVuSans-65"/>
      <use x="396.990234" xlink:href="#DejaVuSans-64"/>
     </g>
    </g>
    <g id="line2d_30">
     <path d="M 66.6 113.282938 
L 86.6 113.282938 
" style="fill:none;stroke:#9467bd;stroke-linecap:square;stroke-width:1.5;"/>
    </g>
    <g id="line2d_31">
     <g>
      <use style="fill:#9467bd;stroke:#9467bd;" x="76.6" xlink:href="#mcce3857cae" y="113.282938"/>
     </g>
    </g>
    <g id="text_24">
     <!-- constant -->
     <g transform="translate(94.6 116.782938)scale(0.1 -0.1)">
      <use xlink:href="#DejaVuSans-63"/>
      <use x="54.980469" xlink:href="#DejaVuSans-6f"/>
      <use x="116.162109" xlink:href="#DejaVuSans-6e"/>
      <use x="179.541016" xlink:href="#DejaVuSans-73"/>
      <use x="231.640625" xlink:href="#DejaVuSans-74"/>
      <use x="270.849609" xlink:href="#DejaVuSans-61"/>
      <use x="332.128906" xlink:href="#DejaVuSans-6e"/>
      <use x="395.507812" xlink:href="#DejaVuSans-74"/>
     </g>
    </g>
   </g>
  </g>
 </g>
 <defs>
  <clipPath id="pdfb3d6956d">
   <rect height="266.112" width="357.12" x="57.6" y="41.472"/>
  </clipPath>
 </defs>
</svg>
